<svg xmlns="http://www.w3.org/2000/svg" width="33.941" height="33.941" viewBox="0 0 33.941 33.941"><defs><style>.a{fill:none;}.b{fill:#4060af;}</style></defs><g transform="translate(16.971) rotate(45)"><rect class="a" width="24" height="24"/><g transform="translate(6.178 1.669)"><path class="b" d="M12.51,4.069V9.241a6.008,6.008,0,0,0,.834,3.1H8.338a5.959,5.959,0,0,0,.834-3.1V4.069H12.51M15.013,2H6.669a.954.954,0,0,0-.834,1.034.954.954,0,0,0,.834,1.034H7.5V9.241a2.848,2.848,0,0,1-2.5,3.1v2.069H9.981v7.241l.834,1.034.834-1.034V14.413h5.031V12.344h0a2.848,2.848,0,0,1-2.5-3.1V4.069h.834a.954.954,0,0,0,.834-1.034A.954.954,0,0,0,15.013,2Z" transform="translate(-5 -2)"/></g></g></svg>